# xmcd
#
# Track frame offsets:
#        150
#        25037
#        51510
#        75873
#
# Disc length: 1245 seconds
#
# Revision: 3
# Processed by: cddbd v1.5.1PL2 Copyright (c) Steve Scherf et al.
# Submitted via: ExactAudioCopy v0.95b3
#
DISCID=2204db04
DTITLE=the protagonist - interim
DYEAR=2005
DGENRE=Darkwave
TTITLE0=Strife
TTITLE1=Sacrifice
TTITLE2=Der wahnsinn
TTITLE3=La fin de la journee (stripped)
EXTD=
EXTT0=
EXTT1=
EXTT2=
EXTT3=
PLAYORDER=
